<?xml version="1.0" encoding="UTF-8" standalone="no"?>
<!DOCTYPE svg PUBLIC "-//W3C//DTD SVG 1.1//EN"
 "http://www.w3.org/Graphics/SVG/1.1/DTD/svg11.dtd">
<!-- Generated by graphviz version 2.44.0 ()
 -->
<!-- Pages: 1 -->
<svg width="3230pt" height="332pt"
 viewBox="0.00 0.00 3229.93 332.00" xmlns="http://www.w3.org/2000/svg" xmlns:xlink="http://www.w3.org/1999/xlink">
<g id="graph0" class="graph" transform="scale(1 1) rotate(0) translate(4 328)">
<polygon fill="white" stroke="transparent" points="-4,4 -4,-328 3225.93,-328 3225.93,4 -4,4"/>
<!-- toolchain&#45;build&#45;cmake -->
<g id="node1" class="node">
<title>toolchain&#45;build&#45;cmake</title>
<ellipse fill="none" stroke="black" cx="113.09" cy="-306" rx="113.18" ry="18"/>
<text text-anchor="middle" x="113.09" y="-302.3" font-family="Times,serif" font-size="14.00">toolchain&#45;build&#45;cmake</text>
</g>
<!-- c_native_binary -->
<g id="node2" class="node">
<title>c_native_binary</title>
<ellipse fill="none" stroke="black" cx="134.09" cy="-90" rx="83.69" ry="18"/>
<text text-anchor="middle" x="134.09" y="-86.3" font-family="Times,serif" font-size="14.00">c_native_binary</text>
</g>
<!-- toolchain&#45;build&#45;cmake&#45;&gt;c_native_binary -->
<g id="edge1" class="edge">
<title>toolchain&#45;build&#45;cmake&#45;&gt;c_native_binary</title>
<path fill="none" stroke="black" d="M106.22,-287.58C95.41,-257.48 77.28,-194.17 94.09,-144 97.5,-133.83 103.71,-124.06 110.23,-115.73"/>
<polygon fill="black" stroke="black" points="113.03,-117.84 116.77,-107.93 107.67,-113.35 113.03,-117.84"/>
</g>
<!-- c_shared_library -->
<g id="node3" class="node">
<title>c_shared_library</title>
<ellipse fill="none" stroke="black" cx="192.09" cy="-162" rx="89.08" ry="18"/>
<text text-anchor="middle" x="192.09" y="-158.3" font-family="Times,serif" font-size="14.00">c_shared_library</text>
</g>
<!-- toolchain&#45;build&#45;cmake&#45;&gt;c_shared_library -->
<g id="edge2" class="edge">
<title>toolchain&#45;build&#45;cmake&#45;&gt;c_shared_library</title>
<path fill="none" stroke="black" d="M113.6,-287.79C114.85,-268.97 118.94,-238.51 132.09,-216 138.84,-204.45 149,-194.09 159.05,-185.66"/>
<polygon fill="black" stroke="black" points="161.36,-188.29 167.01,-179.33 157.01,-182.81 161.36,-188.29"/>
</g>
<!-- c_shared_sub_library -->
<g id="node4" class="node">
<title>c_shared_sub_library</title>
<ellipse fill="none" stroke="black" cx="250.09" cy="-234" rx="108.58" ry="18"/>
<text text-anchor="middle" x="250.09" y="-230.3" font-family="Times,serif" font-size="14.00">c_shared_sub_library</text>
</g>
<!-- toolchain&#45;build&#45;cmake&#45;&gt;c_shared_sub_library -->
<g id="edge3" class="edge">
<title>toolchain&#45;build&#45;cmake&#45;&gt;c_shared_sub_library</title>
<path fill="none" stroke="black" d="M145.21,-288.59C164.28,-278.85 188.64,-266.4 209.09,-255.95"/>
<polygon fill="black" stroke="black" points="210.86,-258.98 218.17,-251.31 207.67,-252.74 210.86,-258.98"/>
</g>
<!-- c_shared_library&#45;&gt;c_native_binary -->
<g id="edge9" class="edge">
<title>c_shared_library&#45;&gt;c_native_binary</title>
<path fill="none" stroke="black" d="M178.05,-144.05C171,-135.54 162.32,-125.07 154.54,-115.68"/>
<polygon fill="black" stroke="black" points="157.08,-113.26 148,-107.79 151.69,-117.72 157.08,-113.26"/>
</g>
<!-- c_shared_sub_library&#45;&gt;c_shared_library -->
<g id="edge17" class="edge">
<title>c_shared_sub_library&#45;&gt;c_shared_library</title>
<path fill="none" stroke="black" d="M236.05,-216.05C229,-207.54 220.32,-197.07 212.54,-187.68"/>
<polygon fill="black" stroke="black" points="215.08,-185.26 206,-179.79 209.69,-189.72 215.08,-185.26"/>
</g>
<!-- js_app -->
<g id="node5" class="node">
<title>js_app</title>
<ellipse fill="none" stroke="black" cx="431.09" cy="-162" rx="40.09" ry="18"/>
<text text-anchor="middle" x="431.09" y="-158.3" font-family="Times,serif" font-size="14.00">js_app</text>
</g>
<!-- infrastructure_via_terraform -->
<g id="node6" class="node">
<title>infrastructure_via_terraform</title>
<ellipse fill="none" stroke="black" cx="700.09" cy="-234" rx="147.57" ry="18"/>
<text text-anchor="middle" x="700.09" y="-230.3" font-family="Times,serif" font-size="14.00">infrastructure_via_terraform</text>
</g>
<!-- toolchain&#45;build&#45;terraform -->
<g id="node7" class="node">
<title>toolchain&#45;build&#45;terraform</title>
<ellipse fill="none" stroke="black" cx="700.09" cy="-306" rx="132.68" ry="18"/>
<text text-anchor="middle" x="700.09" y="-302.3" font-family="Times,serif" font-size="14.00">toolchain&#45;build&#45;terraform</text>
</g>
<!-- toolchain&#45;build&#45;terraform&#45;&gt;infrastructure_via_terraform -->
<g id="edge4" class="edge">
<title>toolchain&#45;build&#45;terraform&#45;&gt;infrastructure_via_terraform</title>
<path fill="none" stroke="black" d="M700.09,-287.7C700.09,-279.98 700.09,-270.71 700.09,-262.11"/>
<polygon fill="black" stroke="black" points="703.59,-262.1 700.09,-252.1 696.59,-262.1 703.59,-262.1"/>
</g>
<!-- toolchain&#45;build&#45;js -->
<g id="node8" class="node">
<title>toolchain&#45;build&#45;js</title>
<ellipse fill="none" stroke="black" cx="419.09" cy="-306" rx="98.58" ry="18"/>
<text text-anchor="middle" x="419.09" y="-302.3" font-family="Times,serif" font-size="14.00">toolchain&#45;build&#45;js</text>
</g>
<!-- toolchain&#45;build&#45;js&#45;&gt;js_app -->
<g id="edge5" class="edge">
<title>toolchain&#45;build&#45;js&#45;&gt;js_app</title>
<path fill="none" stroke="black" d="M412.88,-287.8C407.23,-269.77 400.56,-240.69 406.09,-216 408.19,-206.62 412.14,-196.95 416.3,-188.48"/>
<polygon fill="black" stroke="black" points="419.46,-189.98 420.98,-179.5 413.25,-186.74 419.46,-189.98"/>
</g>
<!-- js_library -->
<g id="node9" class="node">
<title>js_library</title>
<ellipse fill="none" stroke="black" cx="475.09" cy="-234" rx="59.59" ry="18"/>
<text text-anchor="middle" x="475.09" y="-230.3" font-family="Times,serif" font-size="14.00">js_library</text>
</g>
<!-- toolchain&#45;build&#45;js&#45;&gt;js_library -->
<g id="edge6" class="edge">
<title>toolchain&#45;build&#45;js&#45;&gt;js_library</title>
<path fill="none" stroke="black" d="M432.65,-288.05C439.46,-279.54 447.84,-269.07 455.34,-259.68"/>
<polygon fill="black" stroke="black" points="458.14,-261.78 461.66,-251.79 452.68,-257.41 458.14,-261.78"/>
</g>
<!-- js_library&#45;&gt;js_app -->
<g id="edge29" class="edge">
<title>js_library&#45;&gt;js_app</title>
<path fill="none" stroke="black" d="M464.44,-216.05C459.25,-207.8 452.9,-197.7 447.14,-188.54"/>
<polygon fill="black" stroke="black" points="449.93,-186.39 441.64,-179.79 444,-190.12 449.93,-186.39"/>
</g>
<!-- localstack -->
<g id="node10" class="node">
<title>localstack</title>
<ellipse fill="none" stroke="black" cx="632.09" cy="-18" rx="59.59" ry="18"/>
<text text-anchor="middle" x="632.09" y="-14.3" font-family="Times,serif" font-size="14.00">localstack</text>
</g>
<!-- python_native_app_dockerized -->
<g id="node11" class="node">
<title>python_native_app_dockerized</title>
<ellipse fill="none" stroke="black" cx="955.09" cy="-90" rx="147.57" ry="18"/>
<text text-anchor="middle" x="955.09" y="-86.3" font-family="Times,serif" font-size="14.00">python_native_app_dockerized</text>
</g>
<!-- docker_apps_composition -->
<g id="node12" class="node">
<title>docker_apps_composition</title>
<ellipse fill="none" stroke="black" cx="955.09" cy="-18" rx="122.68" ry="18"/>
<text text-anchor="middle" x="955.09" y="-14.3" font-family="Times,serif" font-size="14.00">docker_apps_composition</text>
</g>
<!-- python_native_app_dockerized&#45;&gt;docker_apps_composition -->
<g id="edge7" class="edge">
<title>python_native_app_dockerized&#45;&gt;docker_apps_composition</title>
<path fill="none" stroke="black" d="M955.09,-71.7C955.09,-63.98 955.09,-54.71 955.09,-46.11"/>
<polygon fill="black" stroke="black" points="958.59,-46.1 955.09,-36.1 951.59,-46.1 958.59,-46.1"/>
</g>
<!-- golib -->
<g id="node13" class="node">
<title>golib</title>
<ellipse fill="none" stroke="black" cx="1320.09" cy="-234" rx="35.19" ry="18"/>
<text text-anchor="middle" x="1320.09" y="-230.3" font-family="Times,serif" font-size="14.00">golib</text>
</g>
<!-- goapp -->
<g id="node14" class="node">
<title>goapp</title>
<ellipse fill="none" stroke="black" cx="1372.09" cy="-162" rx="35.19" ry="18"/>
<text text-anchor="middle" x="1372.09" y="-158.3" font-family="Times,serif" font-size="14.00">goapp</text>
</g>
<!-- golib&#45;&gt;goapp -->
<g id="edge8" class="edge">
<title>golib&#45;&gt;goapp</title>
<path fill="none" stroke="black" d="M1332.15,-216.76C1338.65,-208.02 1346.79,-197.05 1354.03,-187.31"/>
<polygon fill="black" stroke="black" points="1356.94,-189.26 1360.09,-179.15 1351.32,-185.09 1356.94,-189.26"/>
</g>
<!-- toolchain&#45;deploy&#45;docker_compose -->
<g id="node15" class="node">
<title>toolchain&#45;deploy&#45;docker_compose</title>
<ellipse fill="none" stroke="black" cx="1602.09" cy="-306" rx="161.67" ry="18"/>
<text text-anchor="middle" x="1602.09" y="-302.3" font-family="Times,serif" font-size="14.00">toolchain&#45;deploy&#45;docker_compose</text>
</g>
<!-- toolchain&#45;build&#45;docker_compose -->
<g id="node16" class="node">
<title>toolchain&#45;build&#45;docker_compose</title>
<ellipse fill="none" stroke="black" cx="632.09" cy="-90" rx="157.07" ry="18"/>
<text text-anchor="middle" x="632.09" y="-86.3" font-family="Times,serif" font-size="14.00">toolchain&#45;build&#45;docker_compose</text>
</g>
<!-- toolchain&#45;build&#45;docker_compose&#45;&gt;localstack -->
<g id="edge11" class="edge">
<title>toolchain&#45;build&#45;docker_compose&#45;&gt;localstack</title>
<path fill="none" stroke="black" d="M632.09,-71.7C632.09,-63.98 632.09,-54.71 632.09,-46.11"/>
<polygon fill="black" stroke="black" points="635.59,-46.1 632.09,-36.1 628.59,-46.1 635.59,-46.1"/>
</g>
<!-- toolchain&#45;build&#45;docker_compose&#45;&gt;docker_apps_composition -->
<g id="edge10" class="edge">
<title>toolchain&#45;build&#45;docker_compose&#45;&gt;docker_apps_composition</title>
<path fill="none" stroke="black" d="M702.18,-73.81C754.49,-62.47 825.88,-47 879.48,-35.39"/>
<polygon fill="black" stroke="black" points="880.24,-38.8 889.27,-33.26 878.76,-31.96 880.24,-38.8"/>
</g>
<!-- ex_sublib -->
<g id="node17" class="node">
<title>ex_sublib</title>
<ellipse fill="none" stroke="black" cx="1817.09" cy="-234" rx="54.69" ry="18"/>
<text text-anchor="middle" x="1817.09" y="-230.3" font-family="Times,serif" font-size="14.00">ex_sublib</text>
</g>
<!-- ex_lib -->
<g id="node18" class="node">
<title>ex_lib</title>
<ellipse fill="none" stroke="black" cx="1870.09" cy="-162" rx="40.09" ry="18"/>
<text text-anchor="middle" x="1870.09" y="-158.3" font-family="Times,serif" font-size="14.00">ex_lib</text>
</g>
<!-- ex_sublib&#45;&gt;ex_lib -->
<g id="edge12" class="edge">
<title>ex_sublib&#45;&gt;ex_lib</title>
<path fill="none" stroke="black" d="M1829.65,-216.41C1836.18,-207.78 1844.3,-197.06 1851.54,-187.5"/>
<polygon fill="black" stroke="black" points="1854.37,-189.56 1857.62,-179.47 1848.79,-185.33 1854.37,-189.56"/>
</g>
<!-- ex_app -->
<g id="node30" class="node">
<title>ex_app</title>
<ellipse fill="none" stroke="black" cx="1904.09" cy="-90" rx="40.09" ry="18"/>
<text text-anchor="middle" x="1904.09" y="-86.3" font-family="Times,serif" font-size="14.00">ex_app</text>
</g>
<!-- ex_lib&#45;&gt;ex_app -->
<g id="edge31" class="edge">
<title>ex_lib&#45;&gt;ex_app</title>
<path fill="none" stroke="black" d="M1878.32,-144.05C1882.29,-135.89 1887.13,-125.91 1891.55,-116.82"/>
<polygon fill="black" stroke="black" points="1894.71,-118.31 1895.94,-107.79 1888.42,-115.25 1894.71,-118.31"/>
</g>
<!-- python_library -->
<g id="node19" class="node">
<title>python_library</title>
<ellipse fill="none" stroke="black" cx="945.09" cy="-234" rx="79.09" ry="18"/>
<text text-anchor="middle" x="945.09" y="-230.3" font-family="Times,serif" font-size="14.00">python_library</text>
</g>
<!-- python_native_app -->
<g id="node20" class="node">
<title>python_native_app</title>
<ellipse fill="none" stroke="black" cx="950.09" cy="-162" rx="93.68" ry="18"/>
<text text-anchor="middle" x="950.09" y="-158.3" font-family="Times,serif" font-size="14.00">python_native_app</text>
</g>
<!-- python_library&#45;&gt;python_native_app -->
<g id="edge13" class="edge">
<title>python_library&#45;&gt;python_native_app</title>
<path fill="none" stroke="black" d="M946.33,-215.7C946.88,-207.98 947.54,-198.71 948.15,-190.11"/>
<polygon fill="black" stroke="black" points="951.65,-190.33 948.87,-180.1 944.66,-189.83 951.65,-190.33"/>
</g>
<!-- python_native_app&#45;&gt;python_native_app_dockerized -->
<g id="edge30" class="edge">
<title>python_native_app&#45;&gt;python_native_app_dockerized</title>
<path fill="none" stroke="black" d="M951.33,-143.7C951.88,-135.98 952.54,-126.71 953.15,-118.11"/>
<polygon fill="black" stroke="black" points="956.65,-118.33 953.87,-108.1 949.66,-117.83 956.65,-118.33"/>
</g>
<!-- mbs -->
<g id="node21" class="node">
<title>mbs</title>
<ellipse fill="none" stroke="black" cx="2110.09" cy="-234" rx="27" ry="18"/>
<text text-anchor="middle" x="2110.09" y="-230.3" font-family="Times,serif" font-size="14.00">mbs</text>
</g>
<!-- infrastructure_terraform_state -->
<g id="node22" class="node">
<title>infrastructure_terraform_state</title>
<ellipse fill="none" stroke="black" cx="2312.09" cy="-234" rx="157.07" ry="18"/>
<text text-anchor="middle" x="2312.09" y="-230.3" font-family="Times,serif" font-size="14.00">infrastructure_terraform_state</text>
</g>
<!-- toolchain&#45;build&#45;go -->
<g id="node23" class="node">
<title>toolchain&#45;build&#45;go</title>
<ellipse fill="none" stroke="black" cx="1323.09" cy="-306" rx="98.58" ry="18"/>
<text text-anchor="middle" x="1323.09" y="-302.3" font-family="Times,serif" font-size="14.00">toolchain&#45;build&#45;go</text>
</g>
<!-- toolchain&#45;build&#45;go&#45;&gt;golib -->
<g id="edge15" class="edge">
<title>toolchain&#45;build&#45;go&#45;&gt;golib</title>
<path fill="none" stroke="black" d="M1322.35,-287.7C1322.02,-279.98 1321.62,-270.71 1321.25,-262.11"/>
<polygon fill="black" stroke="black" points="1324.75,-261.95 1320.82,-252.1 1317.75,-262.25 1324.75,-261.95"/>
</g>
<!-- toolchain&#45;build&#45;go&#45;&gt;goapp -->
<g id="edge14" class="edge">
<title>toolchain&#45;build&#45;go&#45;&gt;goapp</title>
<path fill="none" stroke="black" d="M1340.35,-287.97C1349.04,-278.28 1358.82,-265.43 1364.09,-252 1371.82,-232.29 1373.59,-208.31 1373.55,-190.21"/>
<polygon fill="black" stroke="black" points="1377.04,-189.97 1373.33,-180.05 1370.04,-190.12 1377.04,-189.97"/>
</g>
<!-- docker_app -->
<g id="node24" class="node">
<title>docker_app</title>
<ellipse fill="none" stroke="black" cx="1180.09" cy="-90" rx="59.59" ry="18"/>
<text text-anchor="middle" x="1180.09" y="-86.3" font-family="Times,serif" font-size="14.00">docker_app</text>
</g>
<!-- docker_app&#45;&gt;docker_apps_composition -->
<g id="edge16" class="edge">
<title>docker_app&#45;&gt;docker_apps_composition</title>
<path fill="none" stroke="black" d="M1140.12,-76.57C1105.24,-65.71 1054.14,-49.82 1014.47,-37.48"/>
<polygon fill="black" stroke="black" points="1015.5,-34.13 1004.91,-34.5 1013.42,-40.81 1015.5,-34.13"/>
</g>
<!-- toolchain&#45;deploy&#45;terraform -->
<g id="node25" class="node">
<title>toolchain&#45;deploy&#45;terraform</title>
<ellipse fill="none" stroke="black" cx="2820.09" cy="-306" rx="137.58" ry="18"/>
<text text-anchor="middle" x="2820.09" y="-302.3" font-family="Times,serif" font-size="14.00">toolchain&#45;deploy&#45;terraform</text>
</g>
<!-- toolchain&#45;mbs -->
<g id="node26" class="node">
<title>toolchain&#45;mbs</title>
<ellipse fill="none" stroke="black" cx="2110.09" cy="-306" rx="74.19" ry="18"/>
<text text-anchor="middle" x="2110.09" y="-302.3" font-family="Times,serif" font-size="14.00">toolchain&#45;mbs</text>
</g>
<!-- toolchain&#45;mbs&#45;&gt;mbs -->
<g id="edge18" class="edge">
<title>toolchain&#45;mbs&#45;&gt;mbs</title>
<path fill="none" stroke="black" d="M2110.09,-287.7C2110.09,-279.98 2110.09,-270.71 2110.09,-262.11"/>
<polygon fill="black" stroke="black" points="2113.59,-262.1 2110.09,-252.1 2106.59,-262.1 2113.59,-262.1"/>
</g>
<!-- localstack_wait -->
<g id="node27" class="node">
<title>localstack_wait</title>
<ellipse fill="none" stroke="black" cx="2571.09" cy="-234" rx="83.69" ry="18"/>
<text text-anchor="middle" x="2571.09" y="-230.3" font-family="Times,serif" font-size="14.00">localstack_wait</text>
</g>
<!-- services_app -->
<g id="node28" class="node">
<title>services_app</title>
<ellipse fill="none" stroke="black" cx="2742.09" cy="-234" rx="69.59" ry="18"/>
<text text-anchor="middle" x="2742.09" y="-230.3" font-family="Times,serif" font-size="14.00">services_app</text>
</g>
<!-- toolchain&#45;build&#45;elixir -->
<g id="node29" class="node">
<title>toolchain&#45;build&#45;elixir</title>
<ellipse fill="none" stroke="black" cx="1900.09" cy="-306" rx="118.08" ry="18"/>
<text text-anchor="middle" x="1900.09" y="-302.3" font-family="Times,serif" font-size="14.00">toolchain&#45;build&#45;elixir</text>
</g>
<!-- toolchain&#45;build&#45;elixir&#45;&gt;ex_sublib -->
<g id="edge21" class="edge">
<title>toolchain&#45;build&#45;elixir&#45;&gt;ex_sublib</title>
<path fill="none" stroke="black" d="M1880,-288.05C1869.16,-278.92 1855.64,-267.51 1843.92,-257.63"/>
<polygon fill="black" stroke="black" points="1846.04,-254.84 1836.14,-251.07 1841.53,-260.19 1846.04,-254.84"/>
</g>
<!-- toolchain&#45;build&#45;elixir&#45;&gt;ex_lib -->
<g id="edge20" class="edge">
<title>toolchain&#45;build&#45;elixir&#45;&gt;ex_lib</title>
<path fill="none" stroke="black" d="M1896.47,-287.87C1891.34,-263.56 1881.88,-218.82 1875.8,-190.01"/>
<polygon fill="black" stroke="black" points="1879.21,-189.25 1873.72,-180.19 1872.36,-190.7 1879.21,-189.25"/>
</g>
<!-- toolchain&#45;build&#45;elixir&#45;&gt;ex_app -->
<g id="edge19" class="edge">
<title>toolchain&#45;build&#45;elixir&#45;&gt;ex_app</title>
<path fill="none" stroke="black" d="M1905.06,-287.58C1912.85,-258.01 1926.33,-196.13 1919.09,-144 1917.88,-135.25 1915.58,-125.9 1913.15,-117.54"/>
<polygon fill="black" stroke="black" points="1916.47,-116.45 1910.17,-107.93 1909.79,-118.52 1916.47,-116.45"/>
</g>
<!-- toolchain&#45;meta&#45;sh -->
<g id="node31" class="node">
<title>toolchain&#45;meta&#45;sh</title>
<ellipse fill="none" stroke="black" cx="2571.09" cy="-306" rx="93.68" ry="18"/>
<text text-anchor="middle" x="2571.09" y="-302.3" font-family="Times,serif" font-size="14.00">toolchain&#45;meta&#45;sh</text>
</g>
<!-- toolchain&#45;meta&#45;sh&#45;&gt;infrastructure_terraform_state -->
<g id="edge22" class="edge">
<title>toolchain&#45;meta&#45;sh&#45;&gt;infrastructure_terraform_state</title>
<path fill="none" stroke="black" d="M2519.3,-291C2479.36,-280.21 2423.78,-265.19 2380.23,-253.42"/>
<polygon fill="black" stroke="black" points="2381.14,-250.04 2370.57,-250.81 2379.31,-256.79 2381.14,-250.04"/>
</g>
<!-- toolchain&#45;meta&#45;sh&#45;&gt;localstack_wait -->
<g id="edge23" class="edge">
<title>toolchain&#45;meta&#45;sh&#45;&gt;localstack_wait</title>
<path fill="none" stroke="black" d="M2571.09,-287.7C2571.09,-279.98 2571.09,-270.71 2571.09,-262.11"/>
<polygon fill="black" stroke="black" points="2574.59,-262.1 2571.09,-252.1 2567.59,-262.1 2574.59,-262.1"/>
</g>
<!-- toolchain&#45;meta&#45;sh&#45;&gt;services_app -->
<g id="edge24" class="edge">
<title>toolchain&#45;meta&#45;sh&#45;&gt;services_app</title>
<path fill="none" stroke="black" d="M2609.04,-289.46C2635.09,-278.8 2669.78,-264.6 2697.21,-253.37"/>
<polygon fill="black" stroke="black" points="2698.65,-256.56 2706.58,-249.54 2696,-250.09 2698.65,-256.56"/>
</g>
<!-- toolchain&#45;build&#45;docker -->
<g id="node32" class="node">
<title>toolchain&#45;build&#45;docker</title>
<ellipse fill="none" stroke="black" cx="1180.09" cy="-162" rx="118.08" ry="18"/>
<text text-anchor="middle" x="1180.09" y="-158.3" font-family="Times,serif" font-size="14.00">toolchain&#45;build&#45;docker</text>
</g>
<!-- toolchain&#45;build&#45;docker&#45;&gt;python_native_app_dockerized -->
<g id="edge26" class="edge">
<title>toolchain&#45;build&#45;docker&#45;&gt;python_native_app_dockerized</title>
<path fill="none" stroke="black" d="M1130.71,-145.64C1097.01,-135.15 1052.14,-121.19 1016.19,-110.01"/>
<polygon fill="black" stroke="black" points="1016.89,-106.56 1006.3,-106.93 1014.81,-113.25 1016.89,-106.56"/>
</g>
<!-- toolchain&#45;build&#45;docker&#45;&gt;docker_app -->
<g id="edge25" class="edge">
<title>toolchain&#45;build&#45;docker&#45;&gt;docker_app</title>
<path fill="none" stroke="black" d="M1180.09,-143.7C1180.09,-135.98 1180.09,-126.71 1180.09,-118.11"/>
<polygon fill="black" stroke="black" points="1183.59,-118.1 1180.09,-108.1 1176.59,-118.1 1183.59,-118.1"/>
</g>
<!-- toolchain&#45;build&#45;python -->
<g id="node33" class="node">
<title>toolchain&#45;build&#45;python</title>
<ellipse fill="none" stroke="black" cx="1049.09" cy="-306" rx="118.08" ry="18"/>
<text text-anchor="middle" x="1049.09" y="-302.3" font-family="Times,serif" font-size="14.00">toolchain&#45;build&#45;python</text>
</g>
<!-- toolchain&#45;build&#45;python&#45;&gt;python_library -->
<g id="edge27" class="edge">
<title>toolchain&#45;build&#45;python&#45;&gt;python_library</title>
<path fill="none" stroke="black" d="M1024.18,-288.23C1010.31,-278.9 992.89,-267.17 977.92,-257.1"/>
<polygon fill="black" stroke="black" points="979.69,-254.07 969.44,-251.39 975.78,-259.88 979.69,-254.07"/>
</g>
<!-- toolchain&#45;build&#45;python&#45;&gt;python_native_app -->
<g id="edge28" class="edge">
<title>toolchain&#45;build&#45;python&#45;&gt;python_native_app</title>
<path fill="none" stroke="black" d="M1049.93,-287.76C1050.02,-268.65 1047.59,-237.65 1033.09,-216 1024.11,-202.6 1010.48,-191.88 996.85,-183.68"/>
<polygon fill="black" stroke="black" points="998.36,-180.52 987.93,-178.66 994.92,-186.62 998.36,-180.52"/>
</g>
<!-- toolchain&#45;deploy&#45;awscli -->
<g id="node34" class="node">
<title>toolchain&#45;deploy&#45;awscli</title>
<ellipse fill="none" stroke="black" cx="3099.09" cy="-306" rx="122.68" ry="18"/>
<text text-anchor="middle" x="3099.09" y="-302.3" font-family="Times,serif" font-size="14.00">toolchain&#45;deploy&#45;awscli</text>
</g>
</g>
</svg>
